HIERARCHY
ROOT joint_0
{
	OFFSET 0.000000 0.000000 0.000000
	CHANNELS 6 Xposition Yposition Zposition Zrotation Yrotation Xrotation 
	JOINT joint_1
	{
		OFFSET 6.590088 -1.122192 114.019043
		CHANNELS 3 Zrotation Yrotation Xrotation
		JOINT joint_2
		{
			OFFSET -5.956055 -0.820435 104.151001
			CHANNELS 3 Zrotation Yrotation Xrotation
			JOINT joint_3
			{
				OFFSET -7.343506 -1.103027 103.942993
				CHANNELS 3 Zrotation Yrotation Xrotation
				JOINT joint_4
				{
					OFFSET 3.109131 -2.857056 147.715942
					CHANNELS 3 Zrotation Yrotation Xrotation
					JOINT joint_5
					{
						OFFSET 28.592285 -2.852295 87.703979
						CHANNELS 3 Zrotation Yrotation Xrotation
						End Site
						{
							OFFSET 0.000000 0.000000 0.000000
						}
					}
				}
				JOINT joint_6
				{
					OFFSET -0.332520 -33.687378 82.401978
					CHANNELS 3 Zrotation Yrotation Xrotation
					JOINT joint_7
					{
						OFFSET -7.397461 -168.719177 -22.750977
						CHANNELS 3 Zrotation Yrotation Xrotation
						JOINT joint_8
						{
							OFFSET 17.065918 -24.903137 -272.721069
							CHANNELS 3 Zrotation Yrotation Xrotation
							JOINT joint_9
							{
								OFFSET 33.311279 -37.031616 -278.192993
								CHANNELS 3 Zrotation Yrotation Xrotation
								End Site
								{
									OFFSET 0.000000 0.000000 0.000000
								}
							}
						}
					}
				}
				JOINT joint_10
				{
					OFFSET 3.914307 30.461670 83.552979
					CHANNELS 3 Zrotation Yrotation Xrotation
					JOINT joint_11
					{
						OFFSET 15.543701 166.845459 -30.963013
						CHANNELS 3 Zrotation Yrotation Xrotation
						JOINT joint_12
						{
							OFFSET 35.734863 35.017700 -269.786011
							CHANNELS 3 Zrotation Yrotation Xrotation
							JOINT joint_13
							{
								OFFSET 70.506592 13.977783 -273.320007
								CHANNELS 3 Zrotation Yrotation Xrotation
								End Site
								{
									OFFSET 0.000000 0.000000 0.000000
								}
							}
						}
					}
				}
			}
		}
	}
	JOINT joint_14
	{
		OFFSET -0.314697 -95.093994 -116.004028
		CHANNELS 3 Zrotation Yrotation Xrotation
		JOINT joint_15
		{
			OFFSET -22.490723 2.017883 -455.510986
			CHANNELS 3 Zrotation Yrotation Xrotation
			JOINT joint_16
			{
				OFFSET -46.427490 7.144104 -496.360985
				CHANNELS 3 Zrotation Yrotation Xrotation
				JOINT joint_17
				{
					OFFSET 209.055420 -37.122803 -85.191002
					CHANNELS 3 Zrotation Yrotation Xrotation
					End Site
					{
						OFFSET 0.000000 0.000000 0.000000
					}
				}
			}
		}
	}
	JOINT joint_18
	{
		OFFSET 5.652832 94.642578 -116.244019
		CHANNELS 3 Zrotation Yrotation Xrotation
		JOINT joint_19
		{
			OFFSET -12.379883 -7.332642 -455.843994
			CHANNELS 3 Zrotation Yrotation Xrotation
			JOINT joint_20
			{
				OFFSET -45.227051 -8.172241 -496.457985
				CHANNELS 3 Zrotation Yrotation Xrotation
				JOINT joint_21
				{
					OFFSET 210.522949 -11.530396 -88.809004
					CHANNELS 3 Zrotation Yrotation Xrotation
					End Site
					{
						OFFSET 0.000000 0.000000 0.000000
					}
				}
			}
		}
	}
}
MOTION
Frames: 16
Frame Time: 0.016667
-3078.699707 915.960571 1198.625000 -4.740246 8.631124 0.089946 1.203439 -1.331769 -2.807373 1.442231 0.169025 0.671771 1.351895 -0.280474 -0.504662 -0.346395 -5.427202 0.547261 0.000000 0.000000 0.000000 -0.065686 1.507067 2.773321 -0.486470 1.612676 1.785084 -1.123294 2.799206 -6.006986 0.000000 0.000000 0.000000 1.736090 0.798433 2.135455 -0.119290 1.130739 -4.860925 2.244037 6.744271 7.331110 0.000000 0.000000 0.000000 0.571190 -4.774915 -1.118651 0.541896 -3.860542 -0.231006 0.516237 8.066938 1.640840 0.000000 0.000000 0.000000 5.148268 -3.771267 -0.950409 5.191410 -6.446406 0.180110 4.814979 8.285946 2.478725 0.000000 0.000000 0.000000 
-3078.905762 916.045288 1198.593018 -4.775114 8.637532 0.097134 1.199175 -1.240771 -2.807223 1.436672 0.151646 0.665839 1.347450 -0.261237 -0.499505 -0.349572 -5.390589 0.557948 0.000000 0.000000 0.000000 -0.057193 1.514843 2.761492 -0.487110 1.623373 1.727997 -1.116132 2.785068 -5.960088 0.000000 0.000000 0.000000 1.710052 0.752721 2.141018 -0.117022 1.091390 -4.868643 2.254326 6.736592 7.364425 0.000000 0.000000 0.000000 0.578853 -4.802235 -1.128712 0.549705 -3.849138 -0.237552 0.522945 8.055638 1.641542 0.000000 0.000000 0.000000 5.159536 -3.783753 -0.986517 5.201142 -6.449802 0.213218 4.827523 8.280464 2.483640 0.000000 0.000000 0.000000 
-3079.104980 916.112366 1198.520996 -4.809968 8.627530 0.098954 1.196404 -1.156808 -2.801530 1.432249 0.135958 0.661576 1.343883 -0.243049 -0.495855 -0.351845 -5.354221 0.566121 0.000000 0.000000 0.000000 -0.049518 1.523860 2.760068 -0.489611 1.636171 1.666372 -1.112220 2.775466 -5.935517 0.000000 0.000000 0.000000 1.688547 0.711816 2.132880 -0.113270 1.052951 -4.856623 2.264557 6.736899 7.397612 0.000000 0.000000 0.000000 0.585459 -4.807768 -1.132042 0.556510 -3.841382 -0.242528 0.528885 8.034837 1.640249 0.000000 0.000000 0.000000 5.168117 -3.770202 -1.008785 5.208978 -6.465201 0.238414 4.837683 8.267750 2.487147 0.000000 0.000000 0.000000 
-3079.275879 916.149658 1198.405029 -4.846175 8.591519 0.089978 1.195124 -1.076544 -2.787855 1.428806 0.123233 0.661090 1.340804 -0.224790 -0.494756 -0.351341 -5.322386 0.565970 0.000000 0.000000 0.000000 -0.043204 1.532899 2.780024 -0.495066 1.650635 1.596344 -1.113587 2.772482 -5.947937 0.000000 0.000000 0.000000 1.673896 0.676286 2.098011 -0.107397 1.012384 -4.804576 2.272667 6.751282 7.421855 0.000000 0.000000 0.000000 0.589484 -4.777861 -1.122449 0.560848 -3.842139 -0.243815 0.532857 8.009643 1.637376 0.000000 0.000000 0.000000 5.172347 -3.713102 -1.003879 5.214026 -6.503355 0.246728 4.843675 8.252112 2.488739 0.000000 0.000000 0.000000 
-3079.438965 916.168274 1198.249023 -4.882254 8.538921 0.076140 1.194517 -1.003504 -2.769415 1.425734 0.112222 0.662267 1.337871 -0.206484 -0.494872 -0.350044 -5.291348 0.563662 0.000000 0.000000 0.000000 -0.034710 1.542886 2.810368 -0.502326 1.667311 1.521676 -1.118021 2.773176 -5.982072 0.000000 0.000000 0.000000 1.666532 0.645427 2.049298 -0.100039 0.972096 -4.732915 2.280758 6.773055 7.446280 0.000000 0.000000 0.000000 0.592537 -4.725652 -1.106503 0.564253 -3.847067 -0.243738 0.536112 7.975320 1.632595 0.000000 0.000000 0.000000 5.174053 -3.629504 -0.985387 5.217367 -6.553754 0.246544 4.847403 8.229518 2.488990 0.000000 0.000000 0.000000 
-3079.623535 916.179932 1198.074951 -4.917138 8.490578 0.068969 1.195492 -0.947157 -2.755383 1.424775 0.104792 0.662770 1.337056 -0.193582 -0.494782 -0.349139 -5.264444 0.562360 0.000000 0.000000 0.000000 -0.023815 1.556060 2.831343 -0.510204 1.686043 1.470413 -1.126900 2.782384 -6.042692 0.000000 0.000000 0.000000 1.661376 0.620396 2.012374 -0.092195 0.940553 -4.682558 2.293133 6.790617 7.488940 0.000000 0.000000 0.000000 0.598538 -4.681124 -1.102126 0.569940 -3.844798 -0.238102 0.542115 7.924217 1.625947 0.000000 0.000000 0.000000 5.178469 -3.561697 -0.972795 5.223002 -6.582668 0.242461 4.853204 8.190693 2.489245 0.000000 0.000000 0.000000 
-3079.839355 916.192139 1197.895996 -4.951246 8.450408 0.075253 1.199137 -0.905864 -2.753076 1.427564 0.101770 0.663007 1.339939 -0.187360 -0.494655 -0.350870 -5.243702 0.568490 0.000000 0.000000 0.000000 -0.007086 1.574750 2.835652 -0.519101 1.708450 1.461343 -1.143597 2.805606 -6.150104 0.000000 0.000000 0.000000 1.655836 0.601001 1.999420 -0.083373 0.921647 -4.677321 2.315092 6.798442 7.571200 0.000000 0.000000 0.000000 0.610073 -4.651605 -1.121807 0.579787 -3.829365 -0.220962 0.553236 7.848955 1.617077 0.000000 0.000000 0.000000 5.189046 -3.525301 -0.973664 5.233921 -6.569301 0.231363 4.863659 8.130647 2.490357 0.000000 0.000000 0.000000 
-3080.076904 916.197388 1197.698975 -4.984007 8.414775 0.088801 1.204313 -0.881550 -2.756918 1.432602 0.102296 0.664115 1.344936 -0.186111 -0.494680 -0.353118 -5.227912 0.575939 0.000000 0.000000 0.000000 0.011979 1.596631 2.830724 -0.528575 1.732924 1.475311 -1.164609 2.836987 -6.283285 0.000000 0.000000 0.000000 1.652454 0.587096 1.998355 -0.074113 0.911186 -4.693869 2.341433 6.802138 7.672190 0.000000 0.000000 0.000000 0.624495 -4.630054 -1.153891 0.591786 -3.806755 -0.197786 0.567022 7.757014 1.606326 0.000000 0.000000 0.000000 5.202567 -3.504948 -0.980896 5.247350 -6.534402 0.215842 4.876352 8.054760 2.491568 0.000000 0.000000 0.000000 
-3080.327148 916.177002 1197.470947 -5.013449 8.394722 0.101743 1.207848 -0.893165 -2.757849 1.436227 0.106208 0.663721 1.348565 -0.190015 -0.494656 -0.354665 -5.213193 0.581545 0.000000 0.000000 0.000000 0.026228 1.618564 2.822532 -0.535986 1.756724 1.482331 -1.179964 2.858865 -6.383184 0.000000 0.000000 0.000000 1.656439 0.580901 1.999789 -0.066685 0.906120 -4.701139 2.360760 6.806762 7.746672 0.000000 0.000000 0.000000 0.638992 -4.626548 -1.179659 0.604522 -3.782941 -0.182791 0.580753 7.664510 1.595460 0.000000 0.000000 0.000000 5.214584 -3.497192 -0.990760 5.259040 -6.507726 0.206452 4.888157 7.972779 2.492025 0.000000 0.000000 0.000000 
-3080.587891 916.120117 1197.207031 -5.037874 8.394680 0.110103 1.207689 -0.947577 -2.751284 1.436131 0.112701 0.660668 1.348704 -0.200234 -0.493164 -0.354511 -5.195370 0.582775 0.000000 0.000000 0.000000 0.031816 1.638366 2.811934 -0.539962 1.777830 1.465107 -1.184351 2.864446 -6.415354 0.000000 0.000000 0.000000 1.672903 0.584297 1.999256 -0.062518 0.905143 -4.682677 2.366530 6.815274 7.768628 0.000000 0.000000 0.000000 0.650043 -4.646367 -1.187581 0.615341 -3.758366 -0.184525 0.591035 7.579159 1.584480 0.000000 0.000000 0.000000 5.223865 -3.498960 -1.002891 5.267780 -6.503822 0.210306 4.898667 7.886431 2.491611 0.000000 0.000000 0.000000 
-3080.860596 916.038696 1196.912964 -5.058936 8.410745 0.117878 1.205949 -1.039538 -2.741811 1.434716 0.124529 0.655804 1.347643 -0.216899 -0.490606 -0.353028 -5.178056 0.580326 0.000000 0.000000 0.000000 0.031748 1.658342 2.797228 -0.541882 1.798242 1.440956 -1.183056 2.860680 -6.414064 0.000000 0.000000 0.000000 1.696648 0.595568 2.000215 -0.060063 0.909656 -4.654952 2.365499 6.824800 7.764818 0.000000 0.000000 0.000000 0.661085 -4.684890 -1.189501 0.626790 -3.732466 -0.194046 0.601197 7.494064 1.573503 0.000000 0.000000 0.000000 5.231739 -3.513982 -1.017922 5.274861 -6.507855 0.220486 4.908377 7.793840 2.490473 0.000000 0.000000 0.000000 
-3081.150635 915.945435 1196.595947 -5.075289 8.437869 0.131686 1.204141 -1.159772 -2.740416 1.434365 0.140745 0.654420 1.347134 -0.239029 -0.490384 -0.351628 -5.160616 0.578253 0.000000 0.000000 0.000000 0.029381 1.680494 2.782413 -0.543665 1.820023 1.428501 -1.182792 2.858264 -6.420665 0.000000 0.000000 0.000000 1.719437 0.610828 2.005019 -0.057653 0.919421 -4.634842 2.365547 6.834006 7.766371 0.000000 0.000000 0.000000 0.678102 -4.732708 -1.203494 0.643566 -3.709715 -0.199395 0.616976 7.400471 1.563294 0.000000 0.000000 0.000000 5.235331 -3.546893 -1.034566 5.277495 -6.503061 0.226080 4.913233 7.700230 2.487244 0.000000 0.000000 0.000000 
-3081.454590 915.847595 1196.290039 -5.087155 8.477122 0.154662 1.202629 -1.311926 -2.752082 1.435937 0.163150 0.657970 1.347811 -0.268085 -0.493818 -0.350066 -5.140101 0.576069 0.000000 0.000000 0.000000 0.026508 1.705527 2.775120 -0.546710 1.844493 1.431615 -1.187080 2.862898 -6.457327 0.000000 0.000000 0.000000 1.737231 0.630655 2.008342 -0.053625 0.935376 -4.621448 2.369748 6.843177 7.785261 0.000000 0.000000 0.000000 0.710341 -4.784198 -1.240576 0.674394 -3.703193 -0.198290 0.647082 7.312919 1.559966 0.000000 0.000000 0.000000 5.232927 -3.601910 -1.053664 5.274041 -6.488609 0.224246 4.910752 7.631710 2.482346 0.000000 0.000000 0.000000 
-3081.773926 915.737976 1195.962036 -5.094084 8.527860 0.183270 1.201249 -1.494385 -2.770882 1.438729 0.192498 0.664285 1.349250 -0.304272 -0.499291 -0.348432 -5.119144 0.573806 0.000000 0.000000 0.000000 0.020270 1.733167 2.767707 -0.549617 1.870610 1.446526 -1.192349 2.868333 -6.502308 0.000000 0.000000 0.000000 1.752945 0.654872 2.015078 -0.049525 0.957110 -4.615222 2.374970 6.851943 7.809231 0.000000 0.000000 0.000000 0.748422 -4.845226 -1.289288 0.710447 -3.700102 -0.193229 0.682687 7.217466 1.557462 0.000000 0.000000 0.000000 5.226230 -3.675214 -1.074131 5.266128 -6.465310 0.218208 4.903455 7.562171 2.475372 0.000000 0.000000 0.000000 
-3082.123535 915.612000 1195.524048 -5.094637 8.584313 0.214213 1.200116 -1.688794 -2.789077 1.441768 0.221727 0.668394 1.351167 -0.345034 -0.503451 -0.346383 -5.094079 0.570653 0.000000 0.000000 0.000000 0.009284 1.764212 2.744055 -0.550240 1.897779 1.476191 -1.194174 2.866464 -6.527909 0.000000 0.000000 0.000000 1.773219 0.679788 2.039454 -0.048301 0.982112 -4.631217 2.379473 6.858693 7.832186 0.000000 0.000000 0.000000 0.770356 -4.926150 -1.334967 0.729994 -3.667009 -0.178439 0.703184 7.069532 1.539506 0.000000 0.000000 0.000000 5.217121 -3.761330 -1.092672 5.255499 -6.419808 0.206363 4.894443 7.418170 2.463554 0.000000 0.000000 0.000000 
-3082.504395 915.468567 1194.983032 -5.091446 8.658165 0.245115 1.201075 -1.904637 -2.801962 1.446811 0.254271 0.668471 1.355393 -0.393719 -0.506753 -0.344373 -5.064024 0.567992 0.000000 0.000000 0.000000 -0.010998 1.801351 2.694733 -0.547496 1.927117 1.528416 -1.190913 2.851146 -6.527567 0.000000 0.000000 0.000000 1.804463 0.704520 2.095695 -0.051821 1.011254 -4.688690 2.384552 6.863041 7.859904 0.000000 0.000000 0.000000 0.764357 -5.055441 -1.373030 0.721091 -3.573291 -0.144235 0.697746 6.848790 1.498091 0.000000 0.000000 0.000000 5.204840 -3.883624 -1.102234 5.241065 -6.323069 0.183523 4.883058 7.150185 2.443908 0.000000 0.000000 0.000000 
